<svg viewBox="0 0 64 64" xml:space="preserve" xmlns="http://www.w3.org/2000/svg"><path d="m39.2 42.7-1.4-1.4 3.5-3.5 1.4 1.4c.8.8.8 2 0 2.8l-.7.7c-.7.8-2 .8-2.8 0z" fill="#CFD8DC" class="fill-cfd8dc"></path><path d="M56 59.5c-.9 0-1.8-.3-2.5-1L39.8 44.1c-1.4-1.4 2.9-5.6 4.2-4.2l14.4 13.7c1.4 1.4 1.4 3.6 0 5-.6.6-1.5.9-2.4.9z" fill="#f57c00" class="fill-263238"></path><circle cx="25" cy="25" fill="#8bc34a" r="22" class="fill-bdbdbd fill-f57c00"></circle><circle cx="25" cy="25" fill="#8bc34a" r="21" class="fill-212121"></circle><circle cx="25" cy="25" fill="#8bc34a" r="17" class="fill-424242"></circle><circle cx="28" cy="28" fill="#FBE9E7" r="13" class="fill-fbe9e7"></circle><circle cx="33" cy="33" fill="#FFC107" r="5" class="fill-ffc107"></circle></svg>